<svg xmlns="http://www.w3.org/2000/svg" viewBox="0 0 1200 630" width="1200" height="630">
  <defs>
    <!-- Use objectBoundingBox (default) so ImageMagick renders the gradient correctly
         regardless of any parent transform on the filled element. -->
    <linearGradient id="bg" x1="0" y1="0" x2="1" y2="1">
      <stop offset="0" stop-color="#0a0a0a"/>
      <stop offset="1" stop-color="#1a1a1f"/>
    </linearGradient>
    <radialGradient id="glow" cx="0.27" cy="0.5" r="0.5">
      <stop offset="0" stop-color="#ff453a" stop-opacity="0.32"/>
      <stop offset="1" stop-color="#ff453a" stop-opacity="0"/>
    </radialGradient>
    <linearGradient id="iconBg" x1="0" y1="0" x2="1" y2="1">
      <stop offset="0" stop-color="#ff453a"/>
      <stop offset="1" stop-color="#ff8a3d"/>
    </linearGradient>
  </defs>

  <!-- Page background + soft red glow behind the icon -->
  <rect width="1200" height="630" fill="url(#bg)"/>
  <rect width="1200" height="630" fill="url(#glow)"/>

  <!-- App icon: 360x360 rounded square positioned at (140, 135) -->
  <rect x="140" y="135" width="360" height="360" rx="80" fill="url(#iconBg)"/>
  <!-- Inner glyph: original 24x24 path scaled by 10 (= 0.667 * 15), shifted to (200, 195). -->
  <g transform="translate(200 195) scale(10)" fill="#ffffff">
    <path d="M 5 2 C 4.2045912 2 3.441211 2.3166015 2.8789062 2.8789062 C 2.3166016 3.4412111 2 4.2045912 2 5 L 2 12 C 2 12.631548 2.2066152 13.237592 2.5703125 13.744141 L 2.5566406 13.744141 C 2.5566406 13.744141 6.7944844 19.173562 8.3964844 21.226562 C 8.7774844 21.715563 9.3614688 22 9.9804688 22 L 20.011719 22 C 20.538719 22 21.044969 21.790969 21.417969 21.417969 C 21.790969 21.044969 22 20.538719 22 20.011719 L 22 6.7832031 C 22 6.2802031 21.80975 5.7957813 21.46875 5.4257812 C 20.664886 4.5564105 19.354725 3.137188 19.171875 2.9394531 C 19.153637 2.9202209 19.139883 2.8976958 19.121094 2.8789062 C 19.113186 2.8709983 19.10369 2.8652325 19.095703 2.8574219 C 19.09226 2.8536988 19.013672 2.7695312 19.013672 2.7695312 L 19.013672 2.7910156 C 18.4627 2.289094 17.748724 2 17 2 L 5 2 z M 5 4 L 17 4 C 17.264591 4 17.519336 4.1052735 17.707031 4.2929688 C 17.894727 4.480664 18 4.7354088 18 5 L 18 12 C 18 12.264591 17.894727 12.519336 17.707031 12.707031 C 17.519336 12.894727 17.264591 13 17 13 L 5 13 C 4.7354088 13 4.480664 12.894727 4.2929688 12.707031 C 4.1052735 12.519336 4 12.264591 4 12 L 4 5 C 4 4.7354088 4.1052735 4.480664 4.2929688 4.2929688 C 4.480664 4.1052735 4.7354088 4 5 4 z M 9 6 L 9 11 L 14 8.5 L 9 6 z M 7 15 L 15 15 C 15.553 15 16 15.447 16 16 C 16 16.553 15.553 17 15 17 L 7 17 C 6.447 17 6 16.553 6 16 C 6 15.447 6.447 15 7 15 z"/>
  </g>

  <!-- Right side text. Helvetica is universally available on macOS / iOS / browsers. -->
  <g font-family="Helvetica, Arial, sans-serif" fill="#ffffff">
    <text x="580" y="245" font-size="118" font-weight="bold" letter-spacing="-3">FreeTube</text>
    <text x="580" y="318" font-size="32" fill="#a8a8b0">Native YouTube client</text>
    <text x="580" y="362" font-size="32" fill="#a8a8b0">for iPhone &amp; iPad</text>

    <!-- Pill: Open Source -->
    <rect x="580" y="410" width="220" height="48" rx="24" fill="none" stroke="#ff6b62" stroke-width="2.5"/>
    <text x="690" y="442" font-size="20" font-weight="bold" fill="#ff8a3d" text-anchor="middle">Open Source · MIT</text>

    <!-- Domain hint -->
    <text x="580" y="510" font-size="20" fill="#6b6b75" letter-spacing="0.5">freetube.io</text>
  </g>
</svg>
